<?xml version="1.0" encoding="iso-8859-1"?>
<!-- Generator: Adobe Illustrator 19.0.0, SVG Export Plug-In . SVG Version: 6.00 Build 0)  -->
<svg version="1.1" id="Layer_1" xmlns="http://www.w3.org/2000/svg" xmlns:xlink="http://www.w3.org/1999/xlink" x="0px" y="0px"
	 viewBox="0 0 512 512" style="enable-background:new 0 0 512 512;" xml:space="preserve">
<g>
	<g>
		<path d="M395.13,139.13H116.87c-9.22,0-16.696,7.475-16.696,16.696v200.348c0,9.22,7.475,16.696,16.696,16.696H395.13
			c9.22,0,16.696-7.475,16.696-16.696V155.826C411.826,146.606,404.351,139.13,395.13,139.13z M378.435,339.478h-244.87V172.522
			h244.87V339.478z"/>
	</g>
</g>
<g>
	<g>
		<path d="M335.344,240.841l-72.348-33.391c-4.439-2.05-9.554-2.05-13.993,0l-72.348,33.391c-5.912,2.728-9.699,8.646-9.699,15.159
			s3.787,12.43,9.699,15.159l72.348,33.391c2.219,1.025,4.608,1.537,6.997,1.537c2.389,0,4.777-0.512,6.997-1.537l72.348-33.391
			c5.912-2.728,9.699-8.646,9.699-15.159S341.257,243.57,335.344,240.841z M256,271.003L223.494,256L256,240.997L288.506,256
			L256,271.003z"/>
	</g>
</g>
<g>
	<g>
		<path d="M495.304,172.522c9.22,0,16.696-7.475,16.696-16.696s-7.475-16.696-16.696-16.696h-16.696v-33.391h16.696
			c9.22,0,16.696-7.475,16.696-16.696c0-9.22-7.475-16.696-16.696-16.696h-33.391H61.217h-11.13H16.696
			C7.475,72.348,0,79.823,0,89.044c0,9.22,7.475,16.696,16.696,16.696h16.696v33.391H16.696C7.475,139.13,0,146.606,0,155.826
			s7.475,16.696,16.696,16.696h16.696v33.391H16.696C7.475,205.913,0,213.388,0,222.609s7.475,16.696,16.696,16.696h16.696v33.391
			H16.696C7.475,272.696,0,280.171,0,289.391s7.475,16.696,16.696,16.696h16.696v33.391H16.696C7.475,339.478,0,346.953,0,356.174
			c0,9.22,7.475,16.696,16.696,16.696h16.696v33.391H16.696C7.475,406.261,0,413.736,0,422.957c0,9.22,7.475,16.696,16.696,16.696
			h33.391h11.13h400.696h33.391c9.22,0,16.696-7.475,16.696-16.696c0-9.22-7.475-16.696-16.696-16.696h-16.696V372.87h16.696
			c9.22,0,16.696-7.475,16.696-16.696c0-9.22-7.475-16.696-16.696-16.696h-16.696v-33.391h16.696c9.22,0,16.696-7.475,16.696-16.696
			s-7.475-16.696-16.696-16.696h-16.696v-33.391h16.696c9.22,0,16.696-7.475,16.696-16.696s-7.475-16.696-16.696-16.696h-16.696
			v-33.391H495.304z M445.217,406.261H66.783V105.739h378.435V406.261z"/>
	</g>
</g>
<g>
</g>
<g>
</g>
<g>
</g>
<g>
</g>
<g>
</g>
<g>
</g>
<g>
</g>
<g>
</g>
<g>
</g>
<g>
</g>
<g>
</g>
<g>
</g>
<g>
</g>
<g>
</g>
<g>
</g>
</svg>
