<?xml version="1.0" encoding="iso-8859-1"?>
<!-- Generator: Adobe Illustrator 19.0.0, SVG Export Plug-In . SVG Version: 6.00 Build 0)  -->
<svg version="1.1" id="Capa_1" xmlns="http://www.w3.org/2000/svg" xmlns:xlink="http://www.w3.org/1999/xlink" x="0px" y="0px"
	 viewBox="0 0 511 511" style="enable-background:new 0 0 511 511;" xml:space="preserve">
<g>
	<path d="M420.986,118.814c0.548,0.122,1.095,0.18,1.634,0.18c3.438,0,6.538-2.379,7.314-5.875l1.777-7.997
		c0.898-4.044-1.651-8.05-5.694-8.948c-4.047-0.901-8.05,1.651-8.948,5.694l-1.777,7.997
		C414.393,113.91,416.942,117.916,420.986,118.814z"/>
	<path d="M418.384,56.428l-84.551-16.911c-3.959-0.792-6.833-4.297-6.833-8.334V7.5c0-4.142-3.358-7.5-7.5-7.5h-128
		c-4.142,0-7.5,3.358-7.5,7.5v23.683c0,4.038-2.874,7.543-6.833,8.334L92.616,56.428C66.764,61.599,48,84.487,48,110.851v269.561
		c0,9.741,6.128,18.584,15.249,22.004L112,420.696V495.5c0,8.547,6.953,15.5,15.5,15.5h199.998c5.838,0,10.929-3.236,13.572-8h42.43
		c8.547,0,15.5-6.953,15.5-15.5v-66.804l48.751-18.281c9.121-3.42,15.249-12.263,15.249-22.004V110.851
		C463,84.487,444.236,61.599,418.384,56.428z M231,15h49v24.5c0,4.687-3.813,8.5-8.5,8.5H231V15z M68.516,388.371
		c-3.299-1.237-5.516-4.436-5.516-7.959v-18.089l49,18.374v23.98L68.516,388.371z M327.498,496H127.5c-0.276,0-0.5-0.224-0.5-0.5
		v-336c0-2.508-1.253-4.85-3.34-6.24l-13.302-8.868c-2.23-1.487-4.191-3.319-5.828-5.445c-2.527-3.282-7.235-3.896-10.518-1.37
		c-3.283,2.526-3.896,7.235-1.37,10.518c2.638,3.427,5.799,6.38,9.395,8.778l9.962,6.642v201.162l-49-18.374V110.851
		c0-10.744,4.273-20.694,11.33-28.045l8.513,38.308c0.777,3.496,3.876,5.875,7.314,5.875c0.539,0,1.086-0.058,1.634-0.18
		c4.043-0.898,6.593-4.905,5.694-8.948l-9.836-44.265c2.509-1.071,5.152-1.906,7.909-2.458l84.551-16.911
		C191.055,52.038,199,42.346,199,31.183V15h17v46.397c0,13.99,9.395,26.445,22.846,30.288l77.187,22.054
		c7.046,2.013,11.967,8.537,11.967,15.865c0,0,0,311.876-0.002,365.953C327.998,495.848,327.746,496,327.498,496z M384,487.5
		c0,0.276-0.224,0.5-0.5,0.5h-40.502C343,417.393,343,129.603,343,129.603c0-13.99-9.395-26.445-22.846-30.288l-77.187-22.054
		c-6.527-1.865-11.222-7.602-11.88-14.262H271.5c12.958,0,23.5-10.542,23.5-23.5V15h17v16.183c0,11.163,7.945,20.854,18.892,23.043
		l84.551,16.911c2.757,0.551,5.399,1.386,7.909,2.458l-0.951,4.28c-0.899,4.043,1.651,8.05,5.694,8.948
		c0.548,0.122,1.095,0.18,1.634,0.18c2.912,0,5.566-1.718,6.786-4.365C443.666,90.006,448,100.026,448,110.851v235.452l-49,18.374
		V163.514l9.962-6.641c5.572-3.715,10.138-8.825,13.205-14.779c1.897-3.682,0.449-8.205-3.233-10.102
		c-3.684-1.897-8.205-0.449-10.102,3.233c-1.902,3.692-4.734,6.862-8.19,9.166l-13.302,8.868c-2.086,1.391-3.34,3.732-3.34,6.24
		V487.5z M442.484,388.371L399,404.677v-23.98l49-18.374v18.089C448,383.935,445.783,387.133,442.484,388.371z"/>
	<path d="M291.5,184c-10.752,0-19.5,8.748-19.5,19.5s8.748,19.5,19.5,19.5s19.5-8.748,19.5-19.5S302.252,184,291.5,184z M291.5,208
		c-2.481,0-4.5-2.019-4.5-4.5s2.019-4.5,4.5-4.5s4.5,2.019,4.5,4.5S293.981,208,291.5,208z"/>
	<path d="M219.5,184c-10.752,0-19.5,8.748-19.5,19.5s8.748,19.5,19.5,19.5s19.5-8.748,19.5-19.5S230.252,184,219.5,184z M219.5,208
		c-2.481,0-4.5-2.019-4.5-4.5s2.019-4.5,4.5-4.5s4.5,2.019,4.5,4.5S221.981,208,219.5,208z"/>
	<path d="M291.5,264c-10.752,0-19.5,8.748-19.5,19.5s8.748,19.5,19.5,19.5s19.5-8.748,19.5-19.5S302.252,264,291.5,264z M291.5,288
		c-2.481,0-4.5-2.019-4.5-4.5s2.019-4.5,4.5-4.5s4.5,2.019,4.5,4.5S293.981,288,291.5,288z"/>
	<path d="M219.5,264c-10.752,0-19.5,8.748-19.5,19.5s8.748,19.5,19.5,19.5s19.5-8.748,19.5-19.5S230.252,264,219.5,264z M219.5,288
		c-2.481,0-4.5-2.019-4.5-4.5s2.019-4.5,4.5-4.5s4.5,2.019,4.5,4.5S221.981,288,219.5,288z"/>
	<path d="M291.5,344c-10.752,0-19.5,8.748-19.5,19.5s8.748,19.5,19.5,19.5s19.5-8.748,19.5-19.5S302.252,344,291.5,344z M291.5,368
		c-2.481,0-4.5-2.019-4.5-4.5s2.019-4.5,4.5-4.5s4.5,2.019,4.5,4.5S293.981,368,291.5,368z"/>
	<path d="M219.5,344c-10.752,0-19.5,8.748-19.5,19.5s8.748,19.5,19.5,19.5s19.5-8.748,19.5-19.5S230.252,344,219.5,344z M219.5,368
		c-2.481,0-4.5-2.019-4.5-4.5s2.019-4.5,4.5-4.5s4.5,2.019,4.5,4.5S221.981,368,219.5,368z"/>
</g>
<g>
</g>
<g>
</g>
<g>
</g>
<g>
</g>
<g>
</g>
<g>
</g>
<g>
</g>
<g>
</g>
<g>
</g>
<g>
</g>
<g>
</g>
<g>
</g>
<g>
</g>
<g>
</g>
<g>
</g>
</svg>
