<?xml version="1.0" encoding="iso-8859-1"?>
<!-- Generator: Adobe Illustrator 19.0.0, SVG Export Plug-In . SVG Version: 6.00 Build 0)  -->
<svg version="1.1" id="Layer_1" xmlns="http://www.w3.org/2000/svg" xmlns:xlink="http://www.w3.org/1999/xlink" x="0px" y="0px"
	 viewBox="0 0 512 512" style="enable-background:new 0 0 512 512;" xml:space="preserve">
<g transform="translate(0 -1)">
	<g>
		<g>
			<circle cx="256" cy="299.67" r="8.533"/>
			<path d="M494.758,460.085c-4.796-23.339-10.914-55.578-18.014-92.919c-36.019-189.594-55.654-282.18-69.82-295.569
				c-11.46-10.82-49.357-23.253-60.433-26.735l-23.936-31.915c-0.102-0.128-0.239-0.213-0.341-0.341
				c-0.162-0.188-0.273-0.401-0.452-0.572c-0.154-0.154-0.375-0.265-0.538-0.41c-0.282-0.239-0.555-0.452-0.853-0.648
				C308.749,1.102,284.301,1,255.996,1s-52.762,0.102-64.384,9.984c-0.29,0.188-0.555,0.401-0.819,0.623
				c-0.171,0.162-0.401,0.265-0.563,0.427c-0.171,0.171-0.29,0.393-0.444,0.572c-0.102,0.128-0.247,0.213-0.341,0.341
				l-23.936,31.915c-11.076,3.482-48.981,15.915-60.433,26.735c-14.165,13.38-33.801,105.967-69.82,295.569
				c-7.1,37.342-13.227,69.581-18.014,92.919c-0.478,2.304,0.026,4.702,1.382,6.622c1.348,1.929,3.439,3.209,5.769,3.541
				l59.733,8.533c4.548,0.648,8.789-2.423,9.6-6.929c10.658-59.025,39.313-215.262,43.972-229.222
				c2.944-8.841,9.105-24.209,14.404-37.026c4.847,19.089,8.158,40.047,9.404,59.955c-0.452,0.034-0.853,0.205-1.289,0.307
				c-0.401,0.094-0.802,0.137-1.178,0.282c-0.529,0.205-0.981,0.521-1.451,0.819c-0.316,0.205-0.657,0.35-0.939,0.589
				c-0.469,0.401-0.845,0.896-1.22,1.391c-0.188,0.247-0.435,0.444-0.597,0.717c-0.486,0.802-0.853,1.698-1.058,2.662
				c-1.877,9.045-3.362,18.688-4.932,28.911c-1.118,7.305-2.278,14.857-3.644,22.536c-0.444,2.483,0.239,5.035,1.86,6.98
				c0.828,0.981,1.852,1.741,2.995,2.261c0.017,0.008,0.034,0.026,0.051,0.034c-10.547,48.521-22.11,111.471-22.11,154.351
				c0,0.077,0.043,0.145,0.051,0.222c0.026,0.99,0.222,1.946,0.572,2.85c0.034,0.085,0.026,0.188,0.068,0.273
				c0.401,0.956,0.998,1.818,1.732,2.568c0.256,0.273,0.589,0.427,0.879,0.657c0.461,0.367,0.87,0.794,1.417,1.067
				c0.128,0.06,0.282,0.102,0.41,0.162c0.06,0.034,0.128,0.06,0.188,0.085C169.237,512.966,221.402,513,255.996,513
				c34.603,0,86.767-0.034,122.684-17.715c0.068-0.026,0.128-0.051,0.196-0.085c0.128-0.06,0.282-0.102,0.41-0.162
				c0.503-0.256,0.87-0.649,1.306-0.99c0.333-0.256,0.717-0.452,1.007-0.76c0.29-0.307,0.461-0.683,0.691-1.024
				c0.998-1.399,1.707-3.012,1.707-4.864c0-42.88-11.554-105.83-22.101-154.351c0.017-0.009,0.026-0.026,0.043-0.034
				c1.143-0.521,2.176-1.28,3.004-2.261c1.621-1.946,2.304-4.497,1.86-6.98c-1.365-7.68-2.526-15.232-3.644-22.536
				c-1.579-10.223-3.055-19.866-4.941-28.911c-0.196-0.964-0.563-1.86-1.058-2.662c-0.154-0.265-0.393-0.461-0.58-0.708
				c-0.384-0.495-0.751-0.998-1.229-1.399c-0.29-0.239-0.623-0.384-0.939-0.589c-0.469-0.299-0.922-0.614-1.451-0.819
				c-0.375-0.145-0.785-0.188-1.178-0.282c-0.435-0.102-0.836-0.273-1.289-0.307c1.246-19.908,4.557-40.866,9.404-59.955
				c5.291,12.817,11.46,28.186,14.404,37.026c4.659,13.961,33.314,170.197,43.972,229.222c0.811,4.506,5.035,7.578,9.6,6.929
				l59.733-8.533c2.33-0.333,4.42-1.613,5.768-3.541C494.733,464.787,495.236,462.389,494.758,460.085z M309.858,86.393
				c0.026-0.102,0.051-0.188,0.085-0.282c0.845-2.637,1.604-5.163,2.287-7.543c0.247-0.853,0.418-1.596,0.64-2.415
				c0.418-1.545,0.845-3.098,1.178-4.497c0.205-0.87,0.333-1.596,0.495-2.406c0.247-1.186,0.512-2.381,0.674-3.422
				c0.12-0.742,0.162-1.348,0.239-2.014c0.085-0.7,0.222-1.51,0.247-2.116l4.651-23.236l11.904,15.863l-1.323,7.168l-10.948,59.281
				c-3.388,19.533-10.65,37.76-21.103,53.427c-6.272,9.395-13.696,17.877-22.118,25.165c-1.963,1.698-3.908,3.277-5.845,4.753
				c-0.58,0.444-1.143,0.828-1.715,1.254c-1.34,0.99-2.679,1.946-3.994,2.825c-0.23,0.154-0.452,0.282-0.683,0.435v-25.199
				c0.188-0.23,0.393-0.546,0.589-0.785c0.529-0.683,1.092-1.468,1.647-2.236c0.691-0.956,1.374-1.911,2.091-2.987
				c0.589-0.879,1.186-1.835,1.783-2.79c0.734-1.169,1.468-2.355,2.219-3.627c0.623-1.05,1.246-2.142,1.886-3.26
				c0.759-1.348,1.527-2.722,2.304-4.156c0.648-1.186,1.289-2.398,1.937-3.644c0.794-1.493,1.579-3.029,2.372-4.599
				c0.648-1.289,1.297-2.577,1.954-3.917c0.802-1.647,1.604-3.32,2.415-5.018c0.64-1.34,1.271-2.671,1.911-4.045
				c0.811-1.749,1.613-3.516,2.415-5.299c0.623-1.391,1.246-2.773,1.869-4.181c0.794-1.818,1.579-3.635,2.355-5.47
				c0.597-1.391,1.195-2.773,1.775-4.164c0.794-1.894,1.553-3.772,2.321-5.666c0.538-1.331,1.092-2.662,1.613-3.985
				c0.794-1.988,1.536-3.942,2.287-5.905c0.461-1.186,0.93-2.389,1.374-3.567c0.794-2.116,1.519-4.164,2.253-6.212
				c0.35-0.973,0.734-1.988,1.067-2.944C308.006,92.017,308.971,89.141,309.858,86.393z M255.996,274.067
				c4.958,0,9.387,2.159,12.51,5.538c0.043,0.051,0.068,0.12,0.111,0.171c1.425,1.579,2.526,3.371,3.277,5.282
				c0.051,0.128,0.085,0.273,0.128,0.41c0.299,0.811,0.555,1.638,0.725,2.492c0.196,1.033,0.316,2.091,0.316,3.174V308.2
				c0,1.084-0.119,2.142-0.316,3.174c-0.171,0.853-0.427,1.69-0.725,2.509c-0.051,0.128-0.077,0.265-0.128,0.393
				c-0.751,1.903-1.852,3.695-3.277,5.274c-0.06,0.068-0.085,0.145-0.145,0.213c-3.115,3.362-7.535,5.504-12.476,5.504
				c-4.932,0-9.353-2.142-12.476-5.504c-0.051-0.068-0.077-0.145-0.137-0.213c-1.425-1.579-2.526-3.371-3.285-5.274
				c-0.043-0.128-0.077-0.265-0.12-0.393c-0.299-0.819-0.555-1.655-0.725-2.509c-0.196-1.033-0.324-2.091-0.324-3.174v-17.067
				c0-1.084,0.128-2.142,0.324-3.174c0.171-0.853,0.427-1.69,0.725-2.509c0.043-0.128,0.077-0.265,0.12-0.393
				c0.759-1.903,1.86-3.695,3.285-5.274c0.06-0.068,0.085-0.145,0.137-0.213C246.643,276.209,251.063,274.067,255.996,274.067z
				 M247.607,151.357c-1.178-2.278-2.364-4.668-3.558-7.125c-0.324-0.683-0.657-1.391-0.99-2.091
				c-0.896-1.886-1.801-3.806-2.697-5.76c-0.418-0.905-0.836-1.809-1.246-2.731c-0.887-1.946-1.758-3.917-2.628-5.905
				c-0.341-0.777-0.683-1.545-1.024-2.321c-1.169-2.697-2.321-5.41-3.447-8.124c-0.29-0.7-0.572-1.399-0.853-2.099
				c-0.862-2.091-1.707-4.173-2.534-6.238c-0.375-0.939-0.742-1.869-1.109-2.799c-0.768-1.963-1.51-3.891-2.236-5.803
				c-0.307-0.794-0.614-1.596-0.913-2.381c-0.964-2.577-1.894-5.094-2.765-7.535c-0.196-0.555-0.367-1.067-0.563-1.604
				c-0.674-1.929-1.323-3.806-1.929-5.606c-0.256-0.768-0.503-1.51-0.742-2.253c-0.521-1.587-1.007-3.106-1.451-4.565
				c-0.196-0.623-0.401-1.271-0.58-1.869c-0.563-1.894-1.067-3.678-1.476-5.282h82.27c-0.41,1.604-0.913,3.388-1.476,5.282
				c-0.179,0.597-0.384,1.254-0.58,1.877c-0.444,1.451-0.922,2.953-1.442,4.523c-0.247,0.759-0.495,1.527-0.76,2.313
				c-0.606,1.792-1.246,3.652-1.92,5.564c-0.196,0.546-0.367,1.067-0.563,1.621c-0.87,2.44-1.801,4.958-2.773,7.535
				c-0.29,0.785-0.606,1.587-0.905,2.381c-0.725,1.911-1.476,3.84-2.244,5.803c-0.358,0.93-0.734,1.86-1.101,2.799
				c-0.828,2.065-1.673,4.147-2.534,6.238c-0.282,0.7-0.563,1.399-0.853,2.099c-1.135,2.714-2.287,5.427-3.447,8.124
				c-0.341,0.777-0.683,1.545-1.024,2.321c-0.87,1.988-1.749,3.959-2.628,5.905c-0.41,0.922-0.828,1.826-1.246,2.731
				c-0.896,1.954-1.801,3.874-2.697,5.76c-0.333,0.7-0.666,1.408-0.998,2.091c-1.186,2.458-2.372,4.838-3.541,7.108
				c-0.316,0.614-0.623,1.186-0.939,1.783c-0.879,1.681-1.749,3.311-2.603,4.855c-0.393,0.717-0.785,1.408-1.178,2.091
				c-0.828,1.451-1.638,2.816-2.432,4.113c-0.316,0.512-0.631,1.058-0.939,1.545c-0.111,0.171-0.205,0.29-0.316,0.452
				c-0.102-0.162-0.196-0.282-0.307-0.452c-0.307-0.486-0.631-1.033-0.939-1.545c-0.802-1.297-1.613-2.662-2.441-4.113
				c-0.384-0.683-0.777-1.374-1.169-2.082c-0.862-1.562-1.741-3.209-2.628-4.907C248.205,152.501,247.906,151.955,247.607,151.357z
				 M255.996,18.067c17.459,0,40.508,0,50.244,3.942L300.207,52.2h-88.414l-6.033-30.191
				C215.488,18.067,238.545,18.067,255.996,18.067z M191.637,38.461l4.651,23.236c0.034,0.606,0.171,1.417,0.256,2.116
				c0.077,0.666,0.111,1.271,0.239,2.014c0.162,1.041,0.418,2.236,0.666,3.422c0.171,0.811,0.299,1.536,0.503,2.406
				c0.333,1.399,0.751,2.953,1.169,4.497c0.222,0.819,0.401,1.562,0.649,2.415c0.674,2.381,1.442,4.907,2.287,7.543
				c0.034,0.094,0.051,0.179,0.085,0.282c0.888,2.748,1.852,5.623,2.893,8.585c0.333,0.956,0.708,1.971,1.067,2.944
				c0.734,2.048,1.459,4.096,2.253,6.212c0.444,1.178,0.913,2.381,1.374,3.567c0.751,1.963,1.493,3.917,2.278,5.905
				c0.529,1.323,1.075,2.654,1.621,3.985c0.759,1.894,1.527,3.772,2.313,5.666c0.589,1.391,1.186,2.773,1.775,4.164
				c0.785,1.835,1.562,3.652,2.364,5.47c0.623,1.408,1.246,2.79,1.869,4.181c0.802,1.784,1.604,3.55,2.415,5.299
				c0.64,1.374,1.271,2.705,1.911,4.045c0.802,1.698,1.604,3.371,2.415,5.018c0.657,1.34,1.306,2.628,1.954,3.917
				c0.794,1.57,1.579,3.106,2.364,4.599c0.657,1.246,1.297,2.458,1.946,3.644c0.777,1.434,1.545,2.807,2.304,4.156
				c0.631,1.118,1.263,2.21,1.886,3.26c0.751,1.271,1.485,2.458,2.21,3.627c0.606,0.956,1.203,1.911,1.792,2.79
				c0.717,1.075,1.399,2.031,2.091,2.987c0.555,0.768,1.109,1.553,1.647,2.236c0.188,0.239,0.401,0.555,0.58,0.785v25.199
				c-0.222-0.154-0.452-0.282-0.683-0.435c-1.306-0.87-2.637-1.835-3.977-2.816c-0.58-0.427-1.152-0.819-1.732-1.263
				c-1.929-1.485-3.883-3.055-5.845-4.753c-22.451-19.43-37.794-47.343-43.238-78.686l-12.254-66.355L191.637,38.461z
				 M165.713,303.822c1.143-7.415,2.236-14.532,3.456-21.222h1.28h52.523c-0.085,0.307-0.111,0.623-0.188,0.93
				c-0.119,0.538-0.213,1.075-0.316,1.621c-0.358,1.963-0.606,3.959-0.606,5.982V308.2c0,2.022,0.247,4.019,0.606,5.982
				c0.102,0.546,0.196,1.084,0.316,1.621c0.077,0.307,0.102,0.623,0.188,0.93h-59.273
				C164.399,312.364,165.065,308.046,165.713,303.822z M255.996,495.933c-22.076,0-51.652,0-78.507-4.762
				c37.521-9.25,65.323-31.514,78.515-62.549c13.201,31.01,41.011,53.274,78.558,62.532
				C307.699,495.933,278.089,495.933,255.996,495.933z M289.028,316.733L289.028,316.733c0.077-0.307,0.111-0.623,0.179-0.93
				c0.128-0.538,0.222-1.075,0.316-1.621c0.358-1.963,0.606-3.959,0.606-5.982v-17.067c0-2.022-0.247-4.019-0.606-5.982
				c-0.094-0.546-0.188-1.084-0.316-1.621c-0.068-0.307-0.102-0.623-0.179-0.93h52.523h1.28c1.22,6.69,2.313,13.807,3.447,21.222
				c0.657,4.224,1.323,8.542,2.022,12.911H289.028z"/>
		</g>
	</g>
</g>
<g>
</g>
<g>
</g>
<g>
</g>
<g>
</g>
<g>
</g>
<g>
</g>
<g>
</g>
<g>
</g>
<g>
</g>
<g>
</g>
<g>
</g>
<g>
</g>
<g>
</g>
<g>
</g>
<g>
</g>
</svg>
