<?xml version="1.0" encoding="iso-8859-1"?>
<!-- Generator: Adobe Illustrator 19.0.0, SVG Export Plug-In . SVG Version: 6.00 Build 0)  -->
<svg version="1.1" id="Layer_1" xmlns="http://www.w3.org/2000/svg" xmlns:xlink="http://www.w3.org/1999/xlink" x="0px" y="0px"
	 viewBox="0 0 512 512" style="enable-background:new 0 0 512 512;" xml:space="preserve">
<g transform="translate(0 -1)">
	<g>
		<g>
			<path d="M358.402,367.935h-8.533h-34.133h-8.533c-4.719,0-8.533,3.814-8.533,8.533c0,4.719,3.814,8.533,8.533,8.533v17.067
				c0,9.412,7.654,17.067,17.067,17.067h17.067c9.412,0,17.067-7.654,17.067-17.067v-17.067c4.719,0,8.533-3.814,8.533-8.533
				C366.935,371.75,363.121,367.935,358.402,367.935z"/>
			<path d="M204.802,385.002c4.719,0,8.533-3.814,8.533-8.533c0-4.719-3.814-8.533-8.533-8.533h-8.533h-34.133h-8.533
				c-4.719,0-8.533,3.814-8.533,8.533c0,4.719,3.814,8.533,8.533,8.533v17.067c0,9.412,7.654,17.067,17.067,17.067h17.067
				c9.412,0,17.067-7.654,17.067-17.067V385.002z"/>
			<path d="M511.911,417.905L465.523,100.96c-3.43-23.552-18.509-43.307-40.32-52.838L319.151,1.717
				c-0.154-0.068-0.316-0.06-0.469-0.119c-0.521-0.196-1.05-0.324-1.604-0.418c-0.299-0.043-0.589-0.102-0.896-0.119
				c-0.154-0.009-0.29-0.06-0.444-0.06H196.271c-0.154,0-0.299,0.051-0.452,0.06c-0.29,0.017-0.572,0.077-0.862,0.119
				c-0.563,0.085-1.109,0.222-1.638,0.418c-0.154,0.06-0.316,0.06-0.469,0.119L86.805,48.121
				c-21.82,9.532-36.898,29.286-40.328,52.838L0.09,417.905c-0.358,2.449,0.367,4.941,1.988,6.81c1.101,1.28,2.603,2.014,4.19,2.458
				l-0.375,1.493c-2.005,8.021-0.23,16.358,4.847,22.878c5.094,6.519,12.757,10.257,21.018,10.257h22.357
				c12.254,0,22.895-8.303,25.865-20.207l3.482-13.926h1.877c4.19,0,7.765-3.038,8.422-7.185l17.178-107.341V487.4
				c0,6.81,2.654,13.21,7.492,18.022c4.753,4.736,11.051,7.356,17.801,7.518c0.102,0,0.196,0.06,0.307,0.06h0.333h0.094h238.08
				h0.102h0.324c0.102,0,0.188-0.051,0.299-0.06c6.741-0.154,13.047-2.782,17.809-7.518c4.83-4.813,7.492-11.213,7.492-18.022
				V313.141l17.169,107.341c0.666,4.147,4.233,7.185,8.431,7.185h1.869l3.661,14.618c2.867,11.494,13.141,19.516,24.986,19.516
				h24.226c7.979,0,15.377-3.61,20.301-9.907c4.915-6.289,6.622-14.353,4.676-22.093l-0.648-2.628
				c1.587-0.444,3.081-1.178,4.19-2.458C511.544,422.846,512.269,420.354,511.911,417.905z M300.335,18.067l-10.667,17.067h-67.337
				l-10.667-17.067H300.335z M154.407,494.167c-2.159,0.418-4.344,0.759-6.554,1.024c-0.828,0.102-1.647,0.205-2.466,0.282
				c-2.543,0.239-5.111,0.384-7.706,0.418c-0.29,0.008-0.58,0.034-0.87,0.034c-2.415-0.017-4.668-0.93-6.34-2.594
				c-1.596-1.587-2.466-3.695-2.466-5.931V205.8c0-4.446-3.422-8.149-7.859-8.508c-0.23-0.017-0.461-0.026-0.683-0.026
				c-4.156,0-7.748,3.021-8.422,7.185L78.059,410.6h-1.254H18.411l44.945-307.174c2.586-17.681,13.901-32.503,30.276-39.672
				L174.4,28.418l-28.032,44.86c-2.295,3.678-1.476,8.482,1.903,11.187l40.115,32.094l7.996,47.974
				c0.102,0.614,0.273,1.203,0.495,1.766l33.527,83.814v15.42h-8.533c0-4.719-3.823-8.533-8.533-8.533
				c-4.719,0-8.533,3.814-8.533,8.533V282.6c0,4.719,3.814,8.533,8.533,8.533c4.71,0,8.533-3.814,8.533-8.533h8.533v34.133h-8.533
				c0-4.719-3.823-8.533-8.533-8.533c-4.719,0-8.533,3.814-8.533,8.533V333.8c0,4.719,3.814,8.533,8.533,8.533
				c4.71,0,8.533-3.814,8.533-8.533h8.533v68.267c0,2.918-0.179,5.786-0.444,8.636c-0.068,0.777-0.171,1.553-0.256,2.321
				c-0.265,2.244-0.597,4.471-1.024,6.665c-0.111,0.623-0.222,1.246-0.35,1.869c-7.654,35.994-36.036,64.469-72.004,72.243
				C155.687,493.937,155.047,494.039,154.407,494.167z M195.691,495.934c0.7-0.444,1.331-0.998,2.022-1.459
				c1.732-1.152,3.379-2.406,5.035-3.652c1.442-1.075,2.961-2.005,4.352-3.157c5.47-4.506,10.53-9.566,15.036-15.027
				c9.216-11.17,16.068-23.817,20.352-37.598c1.007-3.251,1.818-6.562,2.517-9.89c0.171-0.777,0.299-1.562,0.444-2.347
				c0.486-2.569,0.887-5.146,1.186-7.748c0.111-0.93,0.23-1.86,0.316-2.799c0.307-3.379,0.521-6.775,0.521-10.189v-153.6V77.8
				c0-1.596-0.452-3.166-1.306-4.523L232.999,52.2h46.003l-13.167,21.077c-0.853,1.357-1.297,2.927-1.297,4.523v170.667v153.6
				c0,3.413,0.205,6.81,0.512,10.189c0.085,0.939,0.205,1.869,0.316,2.799c0.307,2.603,0.7,5.188,1.186,7.757
				c0.154,0.777,0.282,1.562,0.444,2.33c0.708,3.336,1.51,6.647,2.526,9.907c4.284,13.773,11.128,26.419,20.344,37.589
				c4.514,5.461,9.574,10.522,15.036,15.027c1.391,1.152,2.918,2.082,4.352,3.157c1.664,1.246,3.311,2.5,5.035,3.652
				c0.691,0.461,1.323,1.016,2.022,1.459H195.691z M435.204,410.6h-1.263L400.96,204.452c-0.7-4.395-4.719-7.484-9.097-7.159
				c-4.446,0.358-7.859,4.062-7.859,8.508v281.6c0,2.236-0.879,4.344-2.466,5.931c-1.681,1.664-3.925,2.577-6.34,2.594
				c-0.299,0-0.58-0.026-0.879-0.034c-2.594-0.034-5.154-0.179-7.697-0.418c-0.828-0.077-1.647-0.179-2.466-0.282
				c-2.21-0.265-4.395-0.606-6.562-1.024c-0.64-0.128-1.28-0.23-1.92-0.367c-35.968-7.782-64.35-36.258-72.004-72.252
				c-0.128-0.614-0.23-1.229-0.35-1.852c-0.418-2.193-0.751-4.42-1.015-6.673c-0.094-0.777-0.196-1.544-0.265-2.321
				c-0.265-2.85-0.435-5.717-0.435-8.636V333.8h8.533c0,4.719,3.814,8.533,8.533,8.533c4.71,0,8.533-3.814,8.533-8.533v-17.067
				c0-4.719-3.823-8.533-8.533-8.533c-4.719,0-8.533,3.814-8.533,8.533h-8.533V282.6h8.533c0,4.719,3.814,8.533,8.533,8.533
				c4.71,0,8.533-3.814,8.533-8.533v-17.067c0-4.719-3.823-8.533-8.533-8.533c-4.719,0-8.533,3.814-8.533,8.533h-8.533v-15.42
				l33.519-83.814c0.23-0.563,0.393-1.152,0.495-1.766l8.004-47.974l40.115-32.094c3.371-2.705,4.198-7.509,1.894-11.187
				L337.6,28.418l80.768,35.337c16.375,7.168,27.691,21.99,30.276,39.672L493.59,410.6H435.204z"/>
		</g>
	</g>
</g>
<g>
</g>
<g>
</g>
<g>
</g>
<g>
</g>
<g>
</g>
<g>
</g>
<g>
</g>
<g>
</g>
<g>
</g>
<g>
</g>
<g>
</g>
<g>
</g>
<g>
</g>
<g>
</g>
<g>
</g>
</svg>
