<?xml version="1.0" encoding="iso-8859-1"?>
<!-- Generator: Adobe Illustrator 18.0.0, SVG Export Plug-In . SVG Version: 6.00 Build 0)  -->
<!DOCTYPE svg PUBLIC "-//W3C//DTD SVG 1.1//EN" "http://www.w3.org/Graphics/SVG/1.1/DTD/svg11.dtd">
<svg version="1.1" id="Capa_1" xmlns="http://www.w3.org/2000/svg" xmlns:xlink="http://www.w3.org/1999/xlink" x="0px" y="0px"
	 viewBox="0 0 297.002 297.002" style="enable-background:new 0 0 297.002 297.002;" xml:space="preserve">
<path d="M292.145,150.891L219.8,107.484c-2.972-36.744-33.803-65.74-71.299-65.74c-37.126,0-67.729,28.422-71.216,64.649
	L6.287,134.792c-3.336,1.335-5.7,4.356-6.192,7.916c-0.491,3.56,0.964,7.109,3.813,9.299c1.263,0.971,18.828,14.23,45.981,23.758
	c-0.414,1.111-0.638,2.291-0.638,3.492v66c0,5.522,4.478,10,10,10h33c5.522,0,10-4.478,10-10v-59.829
	c0.811,0.013,1.622,0.026,2.438,0.026c7.12,0,14.47-0.507,21.991-1.645c8.227-1.245,18.058-3.032,29.441-5.102
	c40.217-7.313,100.994-18.36,127.813-9.724c4.838,1.556,10.071-0.76,12.172-5.387C298.206,158.971,296.502,153.505,292.145,150.891z
	 M148.5,61.745c25.008,0,45.914,17.896,50.582,41.556h-66.441c-0.214-0.014-0.425-0.043-0.641-0.043h-23.25
	c-0.246,0-0.489,0.025-0.733,0.043H97.918C102.586,79.641,123.493,61.745,148.5,61.745z M88.652,123.388L62.213,158.64
	c-12.055-3.751-22.342-8.476-30.112-12.632L88.652,123.388z M83.684,174.098c-0.938,1.558-1.434,3.341-1.434,5.159v56h-13V182.59
	l44.468-59.29h0.56L83.684,174.098z M152.543,159.031c-11.227,2.041-20.922,3.804-28.855,5.004c-3.814,0.577-7.583,0.956-11.3,1.169
	l25.237-41.904h69.661l38.103,22.861C215.604,147.568,180.775,153.898,152.543,159.031z"/>
<g>
</g>
<g>
</g>
<g>
</g>
<g>
</g>
<g>
</g>
<g>
</g>
<g>
</g>
<g>
</g>
<g>
</g>
<g>
</g>
<g>
</g>
<g>
</g>
<g>
</g>
<g>
</g>
<g>
</g>
</svg>
