<?xml version="1.0" encoding="iso-8859-1"?>
<!-- Generator: Adobe Illustrator 19.0.0, SVG Export Plug-In . SVG Version: 6.00 Build 0)  -->
<svg version="1.1" id="Layer_1" xmlns="http://www.w3.org/2000/svg" xmlns:xlink="http://www.w3.org/1999/xlink" x="0px" y="0px"
	 viewBox="0 0 512 512" style="enable-background:new 0 0 512 512;" xml:space="preserve">
<g>
	<g>
		<path d="M470.734,389.274l-9.11-276.237c-0.674-20.432-13.438-38.375-32.519-45.716L348.99,36.508
			c0.906-2.39,0.646-5.105-0.808-7.285L331.08,3.57c-1.281-1.921-3.326-3.196-5.615-3.5c-0.353-0.046-0.704-0.061-1.055-0.061V0
			H187.591v0.009c-0.351,0-0.702,0.015-1.055,0.061c-2.289,0.304-4.334,1.58-5.615,3.5l-17.102,25.653
			c-1.453,2.18-1.715,4.894-0.808,7.285L82.895,67.321c-19.081,7.339-31.844,25.283-32.519,45.716l-9.11,276.229
			c-0.279,8.213,3.555,15.96,9.91,20.821L49.95,435.83c-0.471,9.913,4.955,19.195,13.827,23.647l55.938,28.062v7.894
			c0,9.136,7.432,16.568,16.568,16.568h239.432c9.136,0,16.568-7.432,16.568-16.568v-7.894l55.939-28.063
			c8.872-4.451,14.299-13.733,13.827-23.646l-1.226-25.744C467.179,405.223,471.012,397.48,470.734,389.274z M423.348,82.287
			c4.806,1.848,9.019,4.686,12.457,8.224l-9.818,9.818l-94.07-36.181l8.579-13.727L423.348,82.287z M331.969,33.81l-34.92,55.872
			c-0.034,0.057-0.127,0.204-0.365,0.245c-0.244,0.031-0.374-0.069-0.423-0.11l-27.773-22.219l54.32-47.531L331.969,33.81z
			 M189.19,20.068l54.32,47.53l-27.772,22.218c-0.052,0.041-0.184,0.142-0.424,0.111c-0.237-0.041-0.33-0.189-0.363-0.244
			L180.03,33.81L189.19,20.068z M88.651,82.286l82.852-31.866l8.579,13.727l-94.07,36.181l-9.818-9.818
			C79.632,86.973,83.846,84.135,88.651,82.286z M62.886,398.508c-3.475-1.444-5.723-4.939-5.595-8.707l9.11-276.236
			c0.099-3.013,0.605-5.939,1.433-8.738l35.658,35.658c4.947,4.946,7.671,11.523,7.671,18.518v259.602L62.886,398.508z
			 M70.967,445.146c-3.209-1.611-5.172-4.967-5.002-8.554l0.908-19.058l44.293,18.438v25.256c0,1.521,0.223,2.989,0.609,4.389
			L70.967,445.146z M127.198,461.228v-30.484c0.001-0.095,0.002-0.19,0-0.285V169.954h18.171v51.841
			c0,13.851,11.268,25.119,25.119,25.119h9.086v214.848h-51.841C127.438,461.762,127.198,461.521,127.198,461.228z M184.005,211.863
			c1.129,0.564,2.357,0.847,3.585,0.847s2.457-0.282,3.585-0.847l22.603-11.301v21.234c0,5.01-4.076,9.086-9.086,9.086h-34.205
			c-5.01,0-9.086-4.076-9.086-9.086v-21.234L184.005,211.863z M161.402,182.636v-12.682h52.376v12.682L187.59,195.73
			L161.402,182.636z M247.983,495.967H136.283c-0.294,0-0.534-0.241-0.534-0.534v-17.637h112.234V495.967z M247.983,461.762h-52.376
			V246.914h9.086c13.851,0,25.119-11.268,25.119-25.119v-51.841h18.171V461.762z M247.983,153.921H126.885
			c-1.116-9.353-5.289-18.01-12.053-24.774l-16.413-16.413l90.318-34.739l12.617,20.188c2.504,4.005,6.612,6.756,11.268,7.55
			c0.924,0.156,1.851,0.234,2.777,0.234c3.735,0,7.398-1.265,10.355-3.63l22.228-17.782V153.921z M208.927,16.033h94.146L256,57.222
			L208.927,16.033z M307.306,246.914h9.086v214.848h-52.376V169.954h18.171v51.841C282.187,235.646,293.456,246.914,307.306,246.914
			z M320.824,211.863c1.129,0.564,2.357,0.847,3.585,0.847c1.228,0,2.457-0.282,3.585-0.847l22.603-11.301v21.234
			c0,5.01-4.076,9.086-9.086,9.086h-34.205c-5.01,0-9.086-4.076-9.086-9.086v-21.234L320.824,211.863z M298.221,182.636v-12.682
			h52.376v12.682l-26.188,13.094L298.221,182.636z M376.25,495.432c0,0.294-0.241,0.534-0.534,0.534H264.016v-18.171H376.25V495.432
			z M384.801,461.228c0,0.294-0.241,0.534-0.534,0.534h-51.841V246.914h9.086c13.851,0,25.119-11.268,25.119-25.119v-51.841h18.171
			V461.228z M385.114,153.922H264.016V84.555l22.23,17.784c2.958,2.364,6.619,3.629,10.354,3.629c0.925,0,1.853-0.077,2.777-0.234
			c4.656-0.793,8.764-3.544,11.269-7.552l12.615-20.186l90.318,34.739l-16.413,16.413
			C390.403,135.912,386.23,144.569,385.114,153.922z M441.032,445.145l-40.807,20.47c0.386-1.4,0.608-2.867,0.608-4.388v-25.256
			l44.293-18.437l0.907,19.057C446.205,440.179,444.241,443.535,441.032,445.145z M449.109,398.51l-48.274,20.095V159.003
			c0-6.995,2.725-13.572,7.671-18.518l35.658-35.658c0.828,2.799,1.334,5.725,1.433,8.738l9.11,276.245
			C454.836,393.569,452.588,397.065,449.109,398.51z"/>
	</g>
</g>
<g>
</g>
<g>
</g>
<g>
</g>
<g>
</g>
<g>
</g>
<g>
</g>
<g>
</g>
<g>
</g>
<g>
</g>
<g>
</g>
<g>
</g>
<g>
</g>
<g>
</g>
<g>
</g>
<g>
</g>
</svg>
