<?xml version="1.0" encoding="iso-8859-1"?>
<!-- Generator: Adobe Illustrator 19.0.0, SVG Export Plug-In . SVG Version: 6.00 Build 0)  -->
<svg version="1.1" id="Layer_1" xmlns="http://www.w3.org/2000/svg" xmlns:xlink="http://www.w3.org/1999/xlink" x="0px" y="0px"
	 viewBox="0 0 512.001 512.001" style="enable-background:new 0 0 512.001 512.001;" xml:space="preserve">
<g>
	<g>
		<path d="M470.023,105.036h-98.484c-0.146,0-0.287,0.016-0.433,0.017C362.202,49.552,313.979,7.012,256,7.012
			s-106.202,42.539-115.108,98.04c-0.144-0.001-0.286-0.017-0.432-0.017H41.977C18.831,105.036,0,123.867,0,147.013v315.999
			c0,23.146,18.831,41.977,41.977,41.977c18.756,0,409.24,0,428.046,0c23.146,0,41.977-18.831,41.977-41.977V147.013
			C512,123.867,493.169,105.036,470.023,105.036z M364.447,159.327l35.084,29.927l-33.287,30.358
			c-5.899,5.377-7.966,13.783-5.237,21.283l11.381,31.278l-96.696,42.432v-36.818C306.303,247.134,347.706,199.698,364.447,159.327z
			 M147.552,159.325c16.591,40.036,58.081,87.788,88.752,118.46v36.822l-96.696-42.432l11.381-31.278
			c2.728-7.501,0.66-15.907-5.237-21.285l-33.288-30.358L147.552,159.325z M236.308,465.604H41.977c-1.43,0-2.593-1.163-2.593-2.593
			V147.013c0-1.43,1.163-2.593,2.593-2.593h62.359l-34.418,29.359c-9.013,7.688-9.241,21.551-0.49,29.532l40.037,36.513
			l-13.183,36.23c-3.551,9.757,1.084,20.593,10.592,24.766l129.434,56.797V465.604z M254.195,239.694
			c-23.754-24.949-63.646-71.131-73.406-104.309C169.673,97.664,203.785,46.397,256,46.397c52.216,0,86.271,51.363,75.21,88.988
			c-7.361,25.025-34.097,63.027-73.35,104.263C256.866,240.691,255.208,240.701,254.195,239.694z M409.604,465.604h-70.9v-30.887
			h70.9V465.604z M472.615,463.011c0,1.43-1.163,2.593-2.593,2.593h-21.034v-50.579c0-10.875-8.817-19.692-19.692-19.692H319.011
			c-10.875,0-19.692,8.817-19.692,19.692v50.579h-23.627V357.616l129.427-56.795c9.507-4.172,14.142-15.01,10.592-24.766
			l-13.183-36.231l40.037-36.513c8.753-7.981,8.523-21.845-0.49-29.532l-34.417-29.357h62.364c1.43,0,2.593,1.163,2.593,2.593
			V463.011z"/>
	</g>
</g>
<g>
	<g>
		<path d="M178.676,395.333H97.015c-10.875,0-19.692,8.817-19.692,19.692c0,10.875,8.817,19.692,19.692,19.692h81.661
			c10.875,0,19.692-8.817,19.692-19.692C198.368,404.15,189.552,395.333,178.676,395.333z"/>
	</g>
</g>
<g>
</g>
<g>
</g>
<g>
</g>
<g>
</g>
<g>
</g>
<g>
</g>
<g>
</g>
<g>
</g>
<g>
</g>
<g>
</g>
<g>
</g>
<g>
</g>
<g>
</g>
<g>
</g>
<g>
</g>
</svg>
