<?xml version="1.0" encoding="iso-8859-1"?>
<!-- Generator: Adobe Illustrator 19.0.0, SVG Export Plug-In . SVG Version: 6.00 Build 0)  -->
<svg version="1.1" id="Layer_1" xmlns="http://www.w3.org/2000/svg" xmlns:xlink="http://www.w3.org/1999/xlink" x="0px" y="0px"
	 viewBox="0 0 511.997 511.997" style="enable-background:new 0 0 511.997 511.997;" xml:space="preserve">
<g>
	<g>
		<g>
			<path d="M195.376,405.885l-64-21.333c-5.611-1.899-11.627,1.173-13.483,6.741c-1.856,5.589,1.152,11.627,6.741,13.483l64,21.333
				c1.131,0.384,2.261,0.555,3.371,0.555c4.459,0,8.619-2.816,10.112-7.296C203.973,413.778,200.965,407.741,195.376,405.885z"/>
			<path d="M416.005,351.997c0-15.019,4.267-35.947,9.216-60.181c3.968-19.541,8.491-41.685,12.011-66.325
				c0.512-3.477-0.747-6.997-3.349-9.365c-53.376-48.917-39.445-160.299-39.296-161.408c0.405-3.051-0.533-6.123-2.56-8.427
				c-2.027-2.304-4.949-3.627-8.021-3.627h-42.667c-5.888,0-10.667,4.779-10.667,10.667v21.333
				c0,90.773-44.608,131.968-73.899,149.227c-10.752-3.008-75.456-26.176-75.456-149.205V53.351c0-5.888-4.779-10.667-10.667-10.667
				h-42.667c-3.072,0-5.995,1.323-8.021,3.627c-2.048,2.325-2.965,5.397-2.56,8.448c0.149,1.109,14.208,112.384-39.296,161.387
				c-2.581,2.368-3.84,5.867-3.349,9.365c3.52,24.64,8.021,46.784,12.011,66.325c4.949,24.213,9.216,45.141,9.216,60.16
				c0,22.165-15.125,82.496-20.949,103.872c-1.451,5.355,1.429,10.923,6.656,12.821l117.333,42.667
				c1.195,0.427,2.432,0.64,3.648,0.64c3.179,0,6.251-1.408,8.341-3.989l42.667-53.333c0.107-0.149,0.149-0.341,0.256-0.491
				l47.381,54.165c2.069,2.368,4.992,3.648,8.021,3.648c1.216,0,2.453-0.213,3.627-0.64l117.333-42.667
				c5.227-1.899,8.107-7.467,6.656-12.821C431.13,434.493,416.005,374.162,416.005,351.997z M237.018,441.341l-37.888,47.36
				L98.16,451.986c5.739-22.08,19.179-76.245,19.179-99.989c0-17.173-4.267-38.037-9.643-64.427
				c-3.648-17.813-7.723-37.824-11.029-59.712c46.656-47.509,45.376-132.331,43.072-163.861h20.267v10.688
				c0,103.317,42.88,144.832,70.72,160.896c-3.968,1.621-6.72,5.376-6.72,9.749v170.667c0,2.581,0.939,5.077,2.645,7.019
				l13.653,15.616C239.088,439.293,237.957,440.189,237.018,441.341z M413.872,451.965L312.56,488.807l-67.221-76.821V252.882
				c26.005-10.304,106.667-52.437,106.667-178.219V63.997h20.267c-2.283,31.509-3.584,116.352,43.072,163.861
				c-3.328,21.909-7.403,41.899-11.029,59.712c-5.397,26.389-9.643,47.253-9.643,64.427
				C394.672,375.741,408.112,429.906,413.872,451.965z"/>
			<path d="M207.728,62.397c1.707,1.067,3.669,1.6,5.611,1.6c1.643,0,3.264-0.384,4.757-1.131l37.909-18.944l37.888,18.944
				c1.515,0.747,3.136,1.131,4.779,1.131c1.941,0,3.904-0.533,5.611-1.6c3.136-1.941,5.056-5.376,5.056-9.067V10.663
				c0-3.691-1.92-7.125-5.077-9.067c-3.136-1.963-7.083-2.112-10.368-0.469l-37.888,18.944L218.117,1.127
				c-3.285-1.643-7.232-1.472-10.368,0.469c-3.157,1.941-5.077,5.376-5.077,9.067V53.33
				C202.672,57.021,204.592,60.455,207.728,62.397z"/>
			<path d="M277.338,362.663c-5.888,0-10.667,4.779-10.667,10.667c0,5.888,4.779,10.667,10.667,10.667s10.667-4.779,10.667-10.667
				C288.005,367.442,283.226,362.663,277.338,362.663z"/>
			<path d="M277.338,277.33c-5.888,0-10.667,4.779-10.667,10.667s4.779,10.667,10.667,10.667s10.667-4.779,10.667-10.667
				S283.226,277.33,277.338,277.33z"/>
			<path d="M380.634,384.551l-64,21.333c-5.589,1.856-8.597,7.893-6.741,13.483c1.493,4.48,5.653,7.296,10.112,7.296
				c1.109,0,2.24-0.171,3.371-0.555l64-21.333c5.589-1.856,8.597-7.893,6.741-13.483
				C392.261,385.725,386.266,382.653,380.634,384.551z"/>
		</g>
	</g>
</g>
<g>
</g>
<g>
</g>
<g>
</g>
<g>
</g>
<g>
</g>
<g>
</g>
<g>
</g>
<g>
</g>
<g>
</g>
<g>
</g>
<g>
</g>
<g>
</g>
<g>
</g>
<g>
</g>
<g>
</g>
</svg>
