<?xml version="1.0" encoding="iso-8859-1"?>
<!-- Generator: Adobe Illustrator 19.0.0, SVG Export Plug-In . SVG Version: 6.00 Build 0)  -->
<svg version="1.1" id="Layer_1" xmlns="http://www.w3.org/2000/svg" xmlns:xlink="http://www.w3.org/1999/xlink" x="0px" y="0px"
	 viewBox="0 0 512 512" style="enable-background:new 0 0 512 512;" xml:space="preserve">
<g>
	<g>
		<path d="M443.59,179.04c0-3.037-1.716-5.813-4.432-7.17c-25.408-12.705-46.874-47.437-46.874-75.844V50.772
			c0-3.679-2.503-6.885-6.072-7.777l-32.05-8.012L321.526,2.348c-1.523-1.523-3.571-2.345-5.668-2.346V0H196.142v0.002
			c-2.097,0-4.145,0.822-5.668,2.346l-32.634,32.634l-32.05,8.012c-3.57,0.893-6.073,4.098-6.073,7.777v45.253
			c0,28.407-21.467,63.14-46.875,75.844c-2.716,1.358-4.432,4.133-4.432,7.17v316.393c0,9.136,7.432,16.568,16.568,16.568h85.511
			c38.101,0,70.948-22.903,85.511-55.663C270.564,489.097,303.411,512,341.511,512h85.511c9.136,0,16.568-7.432,16.568-16.568
			L443.59,179.04z M320.201,23.697l20.572,20.572l-75.975,207.204c0.709-6.893,1.893-13.737,3.574-20.463L320.201,23.697z
			 M305.59,16.033l-4.543,18.171h-90.096l-4.543-18.171H305.59z M191.799,23.697l51.828,207.313
			c1.681,6.727,2.866,13.57,3.574,20.463L171.227,44.269L191.799,23.697z M247.983,418.472c0,42.731-34.764,77.495-77.495,77.495
			H84.977c-0.295,0-0.534-0.239-0.534-0.534l0.001-311.633c28.67-16.869,51.306-55.081,51.306-87.774V57.032l21.142-5.286
			l91.092,248.432V418.472z M214.961,50.238h82.078L256,214.395L214.961,50.238z M427.557,495.432c0,0.295-0.239,0.534-0.534,0.534
			h-85.511c-42.731,0-77.495-34.764-77.495-77.495V300.178l91.092-248.432l21.142,5.286v38.993
			c0,32.694,22.636,70.906,51.307,87.774V495.432z"/>
	</g>
</g>
<g>
	<g>
		<path d="M196.142,333.495h-76.96c-4.427,0-8.017,3.589-8.017,8.017v76.96c0,13.851,11.268,25.119,25.119,25.119h42.756
			c13.851,0,25.119-11.268,25.119-25.119v-76.96C204.159,337.084,200.569,333.495,196.142,333.495z M188.125,418.472
			c0,5.01-4.076,9.086-9.086,9.086h-42.756c-5.01,0-9.086-4.076-9.086-9.086v-34.739h60.927V418.472z M188.125,367.699h-60.927
			v-18.171h60.927V367.699z"/>
	</g>
</g>
<g>
	<g>
		<path d="M392.818,333.495h-76.96c-4.427,0-8.017,3.589-8.017,8.017v76.96c0,13.851,11.268,25.119,25.119,25.119h42.756
			c13.851,0,25.119-11.268,25.119-25.119v-76.96C400.835,337.084,397.246,333.495,392.818,333.495z M384.802,418.472
			c0,5.01-4.076,9.086-9.086,9.086H332.96c-5.01,0-9.086-4.076-9.086-9.086v-34.739h60.927V418.472z M384.802,367.699h-60.927
			v-18.171h60.927V367.699z"/>
	</g>
</g>
<g>
</g>
<g>
</g>
<g>
</g>
<g>
</g>
<g>
</g>
<g>
</g>
<g>
</g>
<g>
</g>
<g>
</g>
<g>
</g>
<g>
</g>
<g>
</g>
<g>
</g>
<g>
</g>
<g>
</g>
</svg>
